<svg xmlns="http://www.w3.org/2000/svg" width="22" height="23" viewBox="0 0 22 23" fill="none" class="m-svg-icon">
              <path d="M8.25 19.0625C8.25 19.3344 8.16936 19.6003 8.01827 19.8264C7.86718 20.0525 7.65244 20.2288 7.40119 20.3328C7.14994 20.4369 6.87347 20.4641 6.60675 20.4111C6.34003 20.358 6.09503 20.2271 5.90273 20.0348C5.71043 19.8425 5.57947 19.5975 5.52642 19.3307C5.47337 19.064 5.5006 18.7876 5.60467 18.5363C5.70874 18.2851 5.88497 18.0703 6.11109 17.9192C6.33721 17.7681 6.60305 17.6875 6.875 17.6875C7.23967 17.6875 7.58941 17.8324 7.84727 18.0902C8.10513 18.3481 8.25 18.6978 8.25 19.0625ZM15.8125 17.6875C15.5406 17.6875 15.2747 17.7681 15.0486 17.9192C14.8225 18.0703 14.6462 18.2851 14.5422 18.5363C14.4381 18.7876 14.4109 19.064 14.4639 19.3307C14.517 19.5975 14.6479 19.8425 14.8402 20.0348C15.0325 20.2271 15.2775 20.358 15.5443 20.4111C15.811 20.4641 16.0874 20.4369 16.3387 20.3328C16.5899 20.2288 16.8047 20.0525 16.9558 19.8264C17.1069 19.6003 17.1875 19.3344 17.1875 19.0625C17.1875 18.6978 17.0426 18.3481 16.7848 18.0902C16.5269 17.8324 16.1772 17.6875 15.8125 17.6875ZM19.9074 6.88945L17.4556 14.8567C17.3272 15.2791 17.0661 15.6488 16.711 15.911C16.3558 16.1733 15.9257 16.314 15.4842 16.3125H7.22477C6.77701 16.3108 6.34184 16.1641 5.98444 15.8944C5.62703 15.6247 5.36661 15.2465 5.24219 14.8163L2.13297 3.9375H0.6875C0.505164 3.9375 0.330295 3.86507 0.201364 3.73614C0.0724328 3.6072 0 3.43234 0 3.25C0 3.06766 0.0724328 2.8928 0.201364 2.76386C0.330295 2.63493 0.505164 2.5625 0.6875 2.5625H2.13297C2.43152 2.56349 2.72173 2.66115 2.96015 2.84085C3.19856 3.02055 3.37237 3.27264 3.45555 3.55937L4.1525 6H19.25C19.3576 5.99996 19.4637 6.02517 19.5597 6.0736C19.6558 6.12204 19.7392 6.19234 19.8031 6.27886C19.8671 6.36537 19.9098 6.46569 19.9279 6.57174C19.9461 6.67779 19.939 6.78661 19.9074 6.88945ZM18.3193 7.375H4.54523L6.56391 14.4391C6.60498 14.5826 6.69168 14.709 6.81092 14.7989C6.93015 14.8888 7.07542 14.9375 7.22477 14.9375H15.4842C15.6313 14.9376 15.7746 14.8904 15.8929 14.803C16.0112 14.7156 16.0984 14.5926 16.1416 14.452L18.3193 7.375Z" fill="currentColor"></path>
            </svg>