<svg class="m-svg-icon" viewBox="0 0 16 16" fill="none" xmlns="http://www.w3.org/2000/svg">
        <path d="M15.75 8C15.75 9.91667 15.125 11.6042 13.875 13.0625C12.625 14.5 11.0729 15.3646 9.21875 15.6562V10.25H11.0312L11.375 8H9.21875V6.53125C9.21875 5.73958 9.63542 5.34375 10.4688 5.34375H11.4375V3.4375C10.8542 3.33333 10.2812 3.28125 9.71875 3.28125C9.11458 3.28125 8.59375 3.39583 8.15625 3.625C7.73958 3.85417 7.40625 4.19792 7.15625 4.65625C6.90625 5.11458 6.78125 5.65625 6.78125 6.28125V8H4.8125V10.25H6.78125V15.6562C4.92708 15.3646 3.375 14.5 2.125 13.0625C0.875 11.6042 0.25 9.91667 0.25 8C0.25 5.85417 1 4.03125 2.5 2.53125C4.02083 1.01042 5.85417 0.25 8 0.25C10.1458 0.25 11.9688 1.01042 13.4688 2.53125C14.9896 4.03125 15.75 5.85417 15.75 8Z" fill="currentColor"></path>
      </svg>